<?xml version="1.0" encoding="UTF-8" standalone="no"?>
<!-- Created with Inkscape (http://www.inkscape.org/) -->

<svg
   width="22in"
   height="6in"
   viewBox="0 0 558.80112 152.40031"
   version="1.1"
   id="svg1"
   inkscape:version="1.3 (0e150ed6c4, 2023-07-21)"
   xml:space="preserve"
   sodipodi:docname="BenWALT.svg"
   xmlns:inkscape="http://www.inkscape.org/namespaces/inkscape"
   xmlns:sodipodi="http://sodipodi.sourceforge.net/DTD/sodipodi-0.dtd"
   xmlns="http://www.w3.org/2000/svg"
   xmlns:svg="http://www.w3.org/2000/svg"><sodipodi:namedview
     id="namedview1"
     pagecolor="#ffffff"
     bordercolor="#000000"
     borderopacity="0.25"
     inkscape:showpageshadow="2"
     inkscape:pageopacity="0.0"
     inkscape:pagecheckerboard="0"
     inkscape:deskcolor="#d1d1d1"
     inkscape:document-units="mm"
     showgrid="true"
     inkscape:zoom="0.42144097"
     inkscape:cx="504.22245"
     inkscape:cy="708.28424"
     inkscape:window-width="2560"
     inkscape:window-height="1369"
     inkscape:window-x="-8"
     inkscape:window-y="-8"
     inkscape:window-maximized="1"
     inkscape:current-layer="layer1"><inkscape:grid
       id="grid1"
       units="mm"
       originx="0"
       originy="0"
       spacingx="0.99999998"
       spacingy="1"
       empcolor="#0099e5"
       empopacity="0.14901961"
       color="#0099e5"
       opacity="0.14901961"
       empspacing="5"
       dotted="false"
       gridanglex="30"
       gridanglez="30"
       visible="true" /></sodipodi:namedview><defs
     id="defs1" /><g
     inkscape:label="Layer 1"
     inkscape:groupmode="layer"
     id="layer1"><g
       id="g8"
       transform="matrix(0.97309429,0,0,0.97301562,-13.24649,-272.03357)"
       inkscape:export-filename="BenWALT.svg"
       inkscape:export-xdpi="60"
       inkscape:export-ydpi="60"
       style="stroke-width:1.02769"><rect
         style="fill:#febd18;fill-opacity:1;stroke:#000000;stroke-width:0.513846;stroke-linecap:round;stroke-linejoin:round;stroke-dashoffset:0.188976;stroke-opacity:0;paint-order:markers fill stroke"
         id="rect7"
         width="543.83118"
         height="130.00847"
         x="26.920851"
         y="292.88696" /><g
         id="g7"
         transform="translate(-343.85471,514.14832)"
         style="stroke-width:1.02769"><path
           style="fill:#000000;stroke-width:1.02769"
           d="m 398.8034,-108.1624 v -4.0349 l 270.06592,-0.0663 214.90824,-0.0663 v 4.10122 4.10121 H 668.79632 398.8034 Z m 202.22601,-8.54251 c -0.49691,-1.29491 -21.7092,-78.87121 -21.61109,-79.03474 0.0655,-0.10914 6.6039,-0.19843 14.52981,-0.19843 h 14.41076 l 0.21075,0.59531 c 0.11592,0.32742 1.92298,8.95524 4.0157,19.17294 2.09272,10.21769 3.83399,18.54857 3.86948,18.51307 0.0355,-0.0355 1.86388,-8.45495 4.06306,-18.70991 2.19918,-10.25495 4.0591,-18.85373 4.13314,-19.10839 0.12582,-0.43274 0.97207,-0.46302 12.93981,-0.46302 11.93155,0 12.82084,0.0316 13.03477,0.46302 0.12627,0.25466 2.12476,8.82606 4.44109,19.04756 2.31632,10.2215 4.27102,18.58498 4.34378,18.5855 0.0728,5.3e-4 1.92542,-8.5411 4.11702,-18.98141 l 3.98473,-18.98238 14.60229,-0.0684 c 10.46326,-0.049 14.60229,0.0139 14.60229,0.22194 0,0.38929 -21.90071,77.9988 -22.22563,78.76094 l -0.25481,0.59768 -13.82611,-0.0685 -13.82611,-0.0685 -4.61924,-19.1081 c -2.54059,-10.50946 -4.65363,-19.07372 -4.69566,-19.03168 -0.042,0.042 -2.04689,8.46208 -4.45523,18.71122 -2.40834,10.24915 -4.44209,18.84317 -4.51944,19.09783 -0.13155,0.43308 -1.01273,0.46302 -13.6249,0.46302 -11.88469,0 -13.50276,-0.0482 -13.64026,-0.40656 z m 85.77582,-0.18875 c 0.084,-0.32743 5.89359,-18.2166 12.91023,-39.75373 l 12.75753,-39.1584 16.44169,-0.0681 16.44169,-0.0681 0.4078,1.25877 c 1.62281,5.00925 24.77152,78.12143 24.77152,78.23761 0,0.0811 -6.551,0.14735 -14.55778,0.14735 h -14.55779 l -0.26016,-0.59531 c -0.14309,-0.32743 -0.74124,-2.61938 -1.32922,-5.09324 -0.58798,-2.47386 -1.18732,-4.94441 -1.33186,-5.49012 l -0.26281,-0.99219 h -9.10012 c -8.43933,0 -9.10984,0.0336 -9.23413,0.46303 -0.0737,0.25466 -0.67686,2.88511 -1.34034,5.84544 -0.66347,2.96033 -1.27306,5.49041 -1.35463,5.6224 -0.086,0.13909 -6.54013,0.23999 -15.35132,0.23999 h -15.203 z m 47.21789,-29.5671 c 0,-0.58631 -4.57748,-21.57821 -4.74617,-21.76549 -0.15655,-0.1738 -5.04343,20.87143 -5.04343,21.71939 0,0.22647 1.32514,0.31054 4.8948,0.31054 3.08499,0 4.8948,-0.0978 4.8948,-0.26444 z m 39.68758,-9.65622 v -39.8211 h 14.94899 14.94899 v 27.91359 27.91359 h 12.30587 12.30587 l -0.0689,11.84013 -0.0689,11.84013 -27.18599,0.0674 -27.18599,0.0674 z m 62.44179,11.37943 v -28.43919 l -8.79741,-0.0697 -8.79742,-0.0697 v -11.24482 -11.24481 l 32.60996,-0.0672 32.60997,-0.0672 v 11.37814 11.37815 h -8.86356 -8.86356 v 28.44277 28.44276 H 851.10149 836.1525 Z m -437.34909,-59.2042 v -4.0349 l 270.06591,-0.0663 214.90824,-0.0663 v 4.10121 4.10121 H 668.79632 398.8034 Z"
           id="path3"
           sodipodi:nodetypes="cccccccccssscsssssssssscssscccssssssssscccssscssscssssscssssssccccccccccccccccccccccccccccccccccccccc" /><path
           style="fill:#000000;stroke-width:1.02769"
           d="m 470.63697,-147.69643 v -31.22089 h 21.69588 21.69587 v 8.2021 8.20209 H 503.57766 493.1266 v 3.3073 3.3073 h 9.12814 9.12814 v 8.2021 8.2021 h -9.12814 -9.12814 v 3.30729 3.3073 h 10.45106 10.45106 v 8.2021 8.2021 h -21.69587 -21.69588 z m 64.65043,30.81433 v 10e-6 z"
           id="path3-8"
           sodipodi:nodetypes="cccccccccccccccccccccccccccc" /><path
           d="m 434.50303,-195.58349 -35.50281,0.014 v 78.84392 l 47.29488,-0.1788 c 0.56641,-0.002 1.13549,-0.0319 1.70533,-0.0873 0.56983,-0.0554 1.14068,-0.13646 1.70945,-0.24185 0.56878,-0.10539 1.13538,-0.23504 1.69861,-0.38705 0.56323,-0.15201 1.12267,-0.32664 1.67587,-0.52194 0.5532,-0.1953 1.10049,-0.41122 1.63918,-0.64647 0.5387,-0.23525 1.06884,-0.48984 1.58854,-0.76171 0.5197,-0.27188 1.02875,-0.56094 1.52497,-0.8661 0.49623,-0.30516 0.97971,-0.62659 1.44798,-0.9617 0.46827,-0.33512 0.92171,-0.6842 1.35754,-1.04593 0.43583,-0.36174 0.85425,-0.73585 1.25316,-1.12087 0.39891,-0.38502 0.77834,-0.781 1.13585,-1.18598 0.3575,-0.40497 0.69297,-0.81915 1.00459,-1.24075 0.31162,-0.4216 0.59917,-0.85031 0.86042,-1.28519 0.26124,-0.43489 0.4964,-0.87602 0.7028,-1.32086 0.20639,-0.44483 0.38417,-0.89368 0.53123,-1.34514 0.14706,-0.45145 0.26299,-0.90538 0.34623,-1.36012 0.13242,-0.72337 0.24478,-1.44812 0.33435,-2.17093 0.0896,-0.72281 0.15629,-1.44378 0.19792,-2.16008 0.0416,-0.71631 0.0584,-1.42782 0.047,-2.13166 -0.0114,-0.70384 -0.0508,-1.39973 -0.12041,-2.08515 -0.0696,-0.68542 -0.16948,-1.36053 -0.30231,-2.02159 -0.0664,-0.33052 -0.14109,-0.6575 -0.22427,-0.98082 -0.0832,-0.32331 -0.17484,-0.64272 -0.27544,-0.95808 -0.1006,-0.31536 -0.21002,-0.62661 -0.32866,-0.93328 -0.11865,-0.30666 -0.24663,-0.60866 -0.38396,-0.90589 -0.13733,-0.29722 -0.28415,-0.58939 -0.4408,-0.87643 -0.15665,-0.28704 -0.3231,-0.5688 -0.49971,-0.84491 -0.17662,-0.27611 -0.36348,-0.54689 -0.56069,-0.81132 -0.19722,-0.26444 -0.40477,-0.52262 -0.62322,-0.77464 -0.21845,-0.25201 -0.44749,-0.49753 -0.68782,-0.73639 -0.24032,-0.23885 -0.49215,-0.47114 -0.75499,-0.69608 -0.26284,-0.22494 -0.5367,-0.4429 -0.82269,-0.65319 -0.28599,-0.21029 -0.5837,-0.41282 -0.89349,-0.60772 -0.30978,-0.19489 -0.63162,-0.38193 -0.96583,-0.56069 -0.33421,-0.17875 -0.68097,-0.34921 -1.04025,-0.51108 -0.35928,-0.16187 -0.73123,-0.31516 -1.11621,-0.4594 -0.38498,-0.14424 -0.78293,-0.27979 -1.19425,-0.40566 -0.41132,-0.12587 -0.83604,-0.24207 -1.27434,-0.34882 -0.4383,-0.10675 -0.89059,-0.20405 -1.35651,-0.29094 -0.46592,-0.0869 -0.94553,-0.16368 -1.43971,-0.22996 -0.49418,-0.0663 -1.00242,-0.12198 -1.52549,-0.16691 -0.52307,-0.0449 -1.06126,-0.079 -1.61386,-0.10181 -0.5526,-0.0228 -1.11997,-0.0341 -1.70274,-0.0341 0,0 0.34064,-0.0279 0.92294,-0.12868 0.29116,-0.0504 0.64277,-0.11934 1.04232,-0.21187 0.39955,-0.0925 0.84699,-0.20906 1.33015,-0.35502 0.48316,-0.14596 1.00212,-0.32106 1.5441,-0.53175 0.54198,-0.21069 1.10709,-0.45692 1.6831,-0.74363 0.28801,-0.14335 0.57889,-0.29699 0.87075,-0.46147 0.29187,-0.16448 0.58484,-0.33957 0.87747,-0.52658 0.29263,-0.18701 0.58511,-0.38591 0.8754,-0.59687 0.29029,-0.21095 0.57866,-0.43392 0.86351,-0.67024 0.28486,-0.23632 0.56601,-0.48571 0.84233,-0.74879 0.27633,-0.26309 0.54766,-0.54021 0.81236,-0.83148 0.26469,-0.29127 0.5226,-0.59691 0.77256,-0.91777 0.24997,-0.32087 0.49185,-0.65686 0.72399,-1.00873 0.23214,-0.35187 0.45438,-0.71953 0.66559,-1.10381 0.21121,-0.38428 0.41123,-0.78492 0.59842,-1.20303 0.18718,-0.41811 0.36187,-0.85355 0.52193,-1.3069 0.16006,-0.45335 0.3058,-0.9249 0.43563,-1.4149 0.12984,-0.49001 0.24352,-0.99846 0.34004,-1.52653 0.0965,-0.52807 0.17554,-1.07577 0.23564,-1.64331 0.0601,-0.56755 0.10138,-1.15477 0.12196,-1.76321 0.0206,-0.60843 0.0205,-1.23804 -0.002,-1.88877 -0.022,-0.65073 -0.0661,-1.32301 -0.13385,-2.01745 -0.0677,-0.69445 -0.15887,-1.4107 -0.27543,-2.15027 -0.11656,-0.73956 -0.25838,-1.50213 -0.42685,-2.28823 -0.16847,-0.7861 -0.36356,-1.59579 -0.58704,-2.42983 -0.0892,-0.33307 -0.19158,-0.65776 -0.30645,-0.97359 -0.11487,-0.31583 -0.24221,-0.62288 -0.38137,-0.92191 -0.13916,-0.29903 -0.29057,-0.58963 -0.45269,-0.8723 -0.16211,-0.28267 -0.3351,-0.55749 -0.51883,-0.82424 -0.18373,-0.26675 -0.37787,-0.52543 -0.58188,-0.7767 -0.204,-0.25127 -0.41784,-0.49499 -0.64079,-0.73122 -0.22295,-0.23623 -0.455,-0.46515 -0.69556,-0.68678 -0.24056,-0.22164 -0.4899,-0.43641 -0.74673,-0.64389 -0.25683,-0.20748 -0.52147,-0.40775 -0.79323,-0.60152 -0.27177,-0.19376 -0.55025,-0.38071 -0.83561,-0.5612 -0.57072,-0.36098 -1.16729,-0.69614 -1.78439,-1.00666 -0.6171,-0.31052 -1.25511,-0.59631 -1.9079,-0.8599 -0.65279,-0.26359 -1.32055,-0.50484 -1.99833,-0.72502 -0.67779,-0.22018 -1.36567,-0.41967 -2.05776,-0.59997 -0.6921,-0.18029 -1.3884,-0.3413 -2.08412,-0.48524 -0.69571,-0.14394 -1.39082,-0.27078 -2.07946,-0.38189 -0.68864,-0.1111 -1.37086,-0.20656 -2.04174,-0.28835 -0.67088,-0.0818 -1.33006,-0.14966 -1.97249,-0.20568 -0.64244,-0.056 -1.26792,-0.10008 -1.87121,-0.13384 -1.20659,-0.0675 -2.32451,-0.0939 -3.3104,-0.0935 z m -2.16266,20.38742 c 0.7523,0.008 1.30554,0.0275 1.44281,0.0677 0.232,-0.0108 0.46031,0.005 0.68368,0.0455 0.22336,0.0403 0.44164,0.10514 0.65216,0.19172 0.21051,0.0866 0.41323,0.195 0.60668,0.32297 0.19345,0.12797 0.37766,0.27527 0.54984,0.43977 0.17217,0.1645 0.33235,0.34643 0.47904,0.5426 0.14668,0.19618 0.27989,0.40694 0.39687,0.62994 0.11698,0.223 0.21769,0.45836 0.30076,0.70332 0.0831,0.24496 0.14833,0.49964 0.19327,0.76171 0.0449,0.26207 0.0697,0.53132 0.0724,0.80564 0.003,0.27432 -0.017,0.55338 -0.061,0.83509 -0.044,0.28171 -0.1125,0.56583 -0.20722,0.85008 -0.0947,0.28425 -0.21565,0.56867 -0.36536,0.8506 -0.1497,0.28193 -0.32802,0.56137 -0.53692,0.83612 -0.20889,0.27476 -0.44858,0.54499 -0.72088,0.80771 -0.27231,0.26272 -0.57734,0.51795 -0.91726,0.76378 -0.33992,0.24583 -0.71428,0.48233 -1.12603,0.70641 h -7.75045 v -10.09294 c 0,0 1.80067,-0.0399 3.66955,-0.0599 0.93444,-0.01 1.88578,-0.0153 2.63809,-0.008 z m -6.30764,30.24318 h 8.95038 c 0,0 0.0773,0.0586 0.20308,0.17312 0.1258,0.11449 0.29998,0.28486 0.49352,0.50953 0.19353,0.22466 0.40657,0.50354 0.60978,0.83406 0.1016,0.16525 0.2009,0.34342 0.29404,0.53433 0.0931,0.19091 0.18045,0.39479 0.25786,0.61082 0.0774,0.21602 0.14504,0.44411 0.19948,0.68471 0.0544,0.2406 0.0952,0.49346 0.11937,0.7581 0.0242,0.26463 0.0319,0.54128 0.0186,0.82941 -0.0133,0.28812 -0.0474,0.58757 -0.10542,0.89865 -0.0581,0.31108 -0.14056,0.63389 -0.25063,0.96738 -0.11007,0.3335 -0.24769,0.67765 -0.41703,1.03302 -0.16934,0.35536 -0.3703,0.72194 -0.60617,1.09864 -0.23586,0.3767 -0.50683,0.76368 -0.81648,1.16117 h -8.95038 z"
           style="stroke:#000000;stroke-width:0.513846;stroke-linecap:round;stroke-linejoin:round;stroke-dashoffset:0.188976;paint-order:markers fill stroke"
           id="path5" /><path
           style="fill:#000000;fill-opacity:1;stroke:#000000;stroke-width:0.513846;stroke-linecap:round;stroke-linejoin:round;stroke-dashoffset:0.188976;stroke-opacity:0.997836;paint-order:markers fill stroke"
           d="m 517.99606,-117.05315 0.0126,-61.98415 21.19477,-0.0499 19.54066,33.82502 -0.0254,-33.79743 20.79136,-0.0188 -0.0118,62.35287 -20.75418,-0.0387 -19.54059,-32.55913 v 32.58356 z"
           id="path4"
           sodipodi:nodetypes="ccccccccccc" /></g></g></g></svg>
